<svg width="413" height="232" fill="none" xmlns="http://www.w3.org/2000/svg"><path d="M.627 10.303c0-5.523 4.477-10 10-10h391.448c5.523 0 10 4.477 10 10V222c0 5.523-4.477 10-10 10H10.627c-5.523 0-10-4.477-10-10V10.303Z" fill="#fff" fill-opacity=".59"/><path d="M87.994 76.135v-1.1l5.55-.65h1.2v1.75h-6.75Zm4.15 0c.067-1.433.117-3.033.15-4.8.034-1.766.05-3.583.05-5.45v-13.1c0-1.866-.016-3.666-.05-5.4a175.311 175.311 0 0 0-.15-4.75h4.25c-.067 1.4-.117 2.983-.15 4.75-.033 1.733-.05 3.534-.05 5.4V65.835c0 1.9.017 3.734.05 5.5.034 1.767.084 3.367.15 4.8h-4.25Zm1.75 0v-1.5h5.2c3.067 0 5.383-.65 6.95-1.95 1.567-1.333 2.35-3.183 2.35-5.55 0-2.5-.783-4.383-2.35-5.65-1.567-1.267-4.017-1.9-7.35-1.9h-4.8v-1.5h4.65c1.933 0 3.533-.25 4.8-.75 1.267-.533 2.2-1.333 2.8-2.4.633-1.1.95-2.45.95-4.05 0-1.633-.3-2.95-.9-3.95-.567-1-1.433-1.717-2.6-2.15-1.133-.466-2.517-.7-4.15-.7h-5.55v-1.45h6.7c2.2 0 4.05.334 5.55 1 1.533.667 2.7 1.584 3.5 2.75.833 1.167 1.25 2.55 1.25 4.15 0 1.5-.383 2.884-1.15 4.15-.733 1.233-1.867 2.233-3.4 3-1.5.767-3.433 1.183-5.8 1.25v-.4c2.767.034 5.017.45 6.75 1.25 1.767.767 3.067 1.784 3.9 3.05a7.484 7.484 0 0 1 1.25 4.2c0 1.167-.25 2.3-.75 3.4-.467 1.067-1.2 2.034-2.2 2.9-1 .867-2.3 1.55-3.9 2.05-1.567.5-3.45.75-5.65.75h-6.05Zm-5.9-32.4v-1.1h6.75v1.75h-1.2l-5.55-.65ZM124.724 76.735c-1.934 0-3.45-.583-4.55-1.75-1.067-1.166-1.6-3.1-1.6-5.8l.05-14.55 1.05 1.4-4.55-.95v-1l6.8-1.35.45.4-.25 6.35v8.95c0 2.167.333 3.65 1 4.45.666.767 1.7 1.15 3.1 1.15.8 0 1.583-.133 2.35-.4.8-.3 1.6-.733 2.4-1.3a19.384 19.384 0 0 0 2.5-2.05l.5 1.15h-.35a16.92 16.92 0 0 1-2.5 2.65c-.934.8-1.95 1.45-3.05 1.95a8.273 8.273 0 0 1-3.35.7Zm8.55-.15-.15-5.2v-15.6l-3.6-.7v-1l6.9-1.35.45.4-.2 6.35v15.1l3.35.5v1.05l-6.75.45ZM151.062 76.735c-1.434 0-2.667-.15-3.7-.45-1-.266-2.084-.716-3.25-1.35l.2-6.05h1.2l1.85 6.5h-1.8v-1.3c.8.467 1.633.817 2.5 1.05.9.233 1.916.35 3.05.35 1.166 0 2.133-.2 2.9-.6.8-.4 1.383-.916 1.75-1.55.4-.666.6-1.4.6-2.2 0-1.3-.45-2.283-1.35-2.95-.9-.666-2.034-1.267-3.4-1.8l-1.6-.65c-1-.433-1.95-.916-2.85-1.45a6.698 6.698 0 0 1-2.1-2c-.534-.833-.8-1.85-.8-3.05 0-1.233.283-2.35.85-3.35.6-1 1.466-1.783 2.6-2.35 1.166-.6 2.6-.9 4.3-.9 1.266 0 2.4.15 3.4.45 1.033.3 2.05.75 3.05 1.35l-.2 5.55h-1.2l-1.7-5.8h1.95v1.5a8.17 8.17 0 0 0-2.5-1.3c-.867-.3-1.8-.45-2.8-.45-1.567 0-2.75.383-3.55 1.15-.8.733-1.2 1.65-1.2 2.75 0 1.267.416 2.233 1.25 2.9.866.667 1.983 1.284 3.35 1.85l1.4.6c1.166.467 2.233 1 3.2 1.6.966.567 1.716 1.267 2.25 2.1.566.8.85 1.834.85 3.1 0 1.267-.317 2.417-.95 3.45-.634 1-1.584 1.8-2.85 2.4-1.267.6-2.834.9-4.7.9ZM163.428 76.135v-1.05l4.95-.7h1l4.85.7v1.05h-10.8Zm3.55 0c.066-.767.1-1.783.1-3.05.033-1.266.05-2.566.05-3.9.033-1.367.05-2.583.05-3.65v-2.3c0-1.4-.017-2.566-.05-3.5 0-.966-.034-1.966-.1-3l-3.8-.75v-.95l7.2-2.4.5.4-.2 6.45v9.7c.033 1.334.066 2.633.1 3.9.033 1.267.066 2.284.1 3.05h-3.95Zm1.8-28.7c-.767 0-1.434-.25-2-.75-.534-.5-.8-1.183-.8-2.05 0-.833.266-1.5.8-2 .566-.5 1.233-.75 2-.75.8 0 1.466.25 2 .75.566.5.85 1.167.85 2 0 .867-.284 1.55-.85 2.05-.534.5-1.2.75-2 .75ZM177.443 76.135v-1.05l5-.7h1l4.8.7v1.05h-10.8Zm3.55 0c.066-.767.1-1.783.1-3.05.033-1.266.05-2.566.05-3.9.033-1.367.05-2.583.05-3.65v-2.3c0-.933-.017-1.75-.05-2.45 0-.733-.017-1.416-.05-2.05 0-.666-.017-1.333-.05-2l-3.8-.75v-.95l6.9-2.4.45.4.15 5.15v11c.033 1.334.066 2.633.1 3.9.033 1.267.066 2.284.1 3.05h-3.95Zm11 0v-1.05l4.95-.7h.95l4.85.7v1.05h-10.75Zm3.5 0c.066-.767.1-1.783.1-3.05.033-1.266.05-2.566.05-3.9.033-1.367.05-2.583.05-3.65v-4.55c0-2.2-.317-3.683-.95-4.45-.634-.766-1.684-1.15-3.15-1.15-.8 0-1.6.134-2.4.4-.767.267-1.55.667-2.35 1.2-.767.534-1.584 1.2-2.45 2l-.5-1h.25c.733-.9 1.566-1.75 2.5-2.55.966-.833 2.016-1.5 3.15-2 1.166-.533 2.333-.8 3.5-.8 1.966 0 3.45.634 4.45 1.9 1.033 1.234 1.55 3.35 1.55 6.35v8.3c.033 1.334.05 2.633.05 3.9.033 1.267.066 2.284.1 3.05h-3.95ZM216.908 76.735c-2.033 0-3.85-.466-5.45-1.4-1.6-.933-2.85-2.266-3.75-4-.9-1.733-1.35-3.8-1.35-6.2 0-2.533.467-4.733 1.4-6.6.967-1.866 2.234-3.316 3.8-4.35 1.6-1.033 3.334-1.55 5.2-1.55 1.567 0 3 .35 4.3 1.05 1.3.7 2.317 1.7 3.05 3 .767 1.3 1.15 2.85 1.15 4.65 0 .533-.033 1.017-.1 1.45-.033.434-.1.8-.2 1.1h-17.15v-1.35h11.4c1.034 0 1.734-.2 2.1-.6.4-.433.6-1.05.6-1.85 0-1.267-.216-2.35-.65-3.25-.4-.9-.983-1.583-1.75-2.05-.766-.5-1.683-.75-2.75-.75-1.1 0-2.166.35-3.2 1.05-1.033.667-1.883 1.767-2.55 3.3-.633 1.5-.95 3.483-.95 5.95 0 2.034.334 3.784 1 5.25.667 1.467 1.584 2.584 2.75 3.35 1.2.767 2.567 1.15 4.1 1.15 1.5 0 2.8-.3 3.9-.9a10.351 10.351 0 0 0 3-2.55l.8.5c-.6 1.267-1.333 2.317-2.2 3.15a9.373 9.373 0 0 1-2.95 1.85c-1.066.4-2.25.6-3.55.6ZM237.195 76.735c-1.434 0-2.667-.15-3.7-.45-1-.266-2.084-.716-3.25-1.35l.2-6.05h1.2l1.85 6.5h-1.8v-1.3c.8.467 1.633.817 2.5 1.05.9.233 1.916.35 3.05.35 1.166 0 2.133-.2 2.9-.6.8-.4 1.383-.916 1.75-1.55.4-.666.6-1.4.6-2.2 0-1.3-.45-2.283-1.35-2.95-.9-.666-2.034-1.267-3.4-1.8l-1.6-.65c-1-.433-1.95-.916-2.85-1.45a6.698 6.698 0 0 1-2.1-2c-.534-.833-.8-1.85-.8-3.05 0-1.233.283-2.35.85-3.35.6-1 1.466-1.783 2.6-2.35 1.166-.6 2.6-.9 4.3-.9 1.266 0 2.4.15 3.4.45 1.033.3 2.05.75 3.05 1.35l-.2 5.55h-1.2l-1.7-5.8h1.95v1.5a8.17 8.17 0 0 0-2.5-1.3c-.867-.3-1.8-.45-2.8-.45-1.567 0-2.75.383-3.55 1.15-.8.733-1.2 1.65-1.2 2.75 0 1.267.416 2.233 1.25 2.9.866.667 1.983 1.284 3.35 1.85l1.4.6c1.166.467 2.233 1 3.2 1.6.966.567 1.716 1.267 2.25 2.1.566.8.85 1.834.85 3.1 0 1.267-.317 2.417-.95 3.45-.634 1-1.584 1.8-2.85 2.4-1.267.6-2.834.9-4.7.9ZM257.361 76.735c-1.434 0-2.667-.15-3.7-.45-1-.266-2.084-.716-3.25-1.35l.2-6.05h1.2l1.85 6.5h-1.8v-1.3c.8.467 1.633.817 2.5 1.05.9.233 1.916.35 3.05.35 1.166 0 2.133-.2 2.9-.6.8-.4 1.383-.916 1.75-1.55.4-.666.6-1.4.6-2.2 0-1.3-.45-2.283-1.35-2.95-.9-.666-2.034-1.267-3.4-1.8l-1.6-.65c-1-.433-1.95-.916-2.85-1.45a6.698 6.698 0 0 1-2.1-2c-.534-.833-.8-1.85-.8-3.05 0-1.233.283-2.35.85-3.35.6-1 1.466-1.783 2.6-2.35 1.166-.6 2.6-.9 4.3-.9 1.266 0 2.4.15 3.4.45 1.033.3 2.05.75 3.05 1.35l-.2 5.55h-1.2l-1.7-5.8h1.95v1.5a8.17 8.17 0 0 0-2.5-1.3c-.867-.3-1.8-.45-2.8-.45-1.567 0-2.75.383-3.55 1.15-.8.733-1.2 1.65-1.2 2.75 0 1.267.416 2.233 1.25 2.9.866.667 1.983 1.284 3.35 1.85l1.4.6c1.166.467 2.233 1 3.2 1.6.966.567 1.716 1.267 2.25 2.1.566.8.85 1.834.85 3.1 0 1.267-.317 2.417-.95 3.45-.634 1-1.584 1.8-2.85 2.4-1.267.6-2.834.9-4.7.9ZM286.623 76.735c-1.7 0-3.133-.483-4.3-1.45-1.166-.966-1.75-2.4-1.75-4.3 0-.933.184-1.817.55-2.65.367-.866 1.084-1.666 2.15-2.4 1.1-.767 2.7-1.483 4.8-2.15.6-.2 1.25-.4 1.95-.6a47.46 47.46 0 0 1 2.45-.7c.9-.267 1.884-.533 2.95-.8v1.05c-1.533.467-2.833.883-3.9 1.25-1.033.334-1.85.617-2.45.85-1.433.567-2.483 1.167-3.15 1.8-.666.6-1.1 1.2-1.3 1.8-.2.6-.3 1.183-.3 1.75 0 1.4.367 2.4 1.1 3 .734.6 1.634.9 2.7.9.7 0 1.35-.083 1.95-.25.6-.166 1.267-.5 2-1 .767-.5 1.7-1.25 2.8-2.25l.45 2.05h-1.5c-.766.967-1.533 1.75-2.3 2.35a7.12 7.12 0 0 1-2.35 1.3c-.8.3-1.65.45-2.55.45Zm10.95-.2c-1.3 0-2.3-.383-3-1.15-.7-.767-1.066-1.833-1.1-3.2v-11.6c0-1.633-.166-2.916-.5-3.85-.3-.933-.783-1.583-1.45-1.95-.666-.4-1.533-.6-2.6-.6a9.21 9.21 0 0 0-1.9.2c-.633.134-1.316.334-2.05.6l1.55-1.1-1 4.05c-.166.7-.45 1.25-.85 1.65-.366.367-.833.55-1.4.55-.6 0-1.05-.166-1.35-.5-.3-.366-.483-.833-.55-1.4.367-1.7 1.35-3.05 2.95-4.05 1.634-1.033 3.567-1.55 5.8-1.55 1.6 0 2.9.284 3.9.85 1.034.534 1.8 1.4 2.3 2.6.5 1.2.75 2.75.75 4.65v11c0 1.067.15 1.8.45 2.2.3.4.7.6 1.2.6.434 0 .8-.1 1.1-.3.3-.2.634-.516 1-.95l.65.55c-.4.834-.916 1.5-1.55 2-.633.467-1.416.7-2.35.7ZM303.468 76.135v-1.05l5-.7h1l4.8.7v1.05h-10.8Zm3.55 0c.067-.767.1-1.783.1-3.05.033-1.266.05-2.566.05-3.9.033-1.367.05-2.583.05-3.65v-2.3c0-.933-.017-1.75-.05-2.45 0-.733-.017-1.416-.05-2.05 0-.666-.017-1.333-.05-2l-3.8-.75v-.95l6.9-2.4.45.4.15 5.15v11c.033 1.334.067 2.633.1 3.9s.067 2.284.1 3.05h-3.95Zm11 0v-1.05l4.95-.7h.95l4.85.7v1.05h-10.75Zm3.5 0c.067-.767.1-1.783.1-3.05.033-1.266.05-2.566.05-3.9.033-1.367.05-2.583.05-3.65v-4.55c0-2.2-.317-3.683-.95-4.45-.633-.766-1.683-1.15-3.15-1.15-.8 0-1.6.134-2.4.4-.767.267-1.55.667-2.35 1.2-.767.534-1.583 1.2-2.45 2l-.5-1h.25a20.01 20.01 0 0 1 2.5-2.55 12.6 12.6 0 0 1 3.15-2c1.167-.533 2.333-.8 3.5-.8 1.967 0 3.45.634 4.45 1.9 1.033 1.234 1.55 3.35 1.55 6.35v8.3c.033 1.334.05 2.633.05 3.9.033 1.267.067 2.284.1 3.05h-3.95ZM341.734 76.735c-1.734 0-3.3-.45-4.7-1.35-1.4-.9-2.534-2.2-3.4-3.9-.834-1.733-1.25-3.85-1.25-6.35 0-2.633.45-4.883 1.35-6.75.9-1.866 2.1-3.283 3.6-4.25 1.5-1 3.15-1.5 4.95-1.5.9 0 1.766.15 2.6.45.833.267 1.633.733 2.4 1.4.766.633 1.466 1.5 2.1 2.6h.7l-.35 1.55c-1.3-1.466-2.45-2.466-3.45-3-1-.566-2.134-.85-3.4-.85-1.2 0-2.317.367-3.35 1.1-1 .733-1.817 1.85-2.45 3.35-.6 1.5-.9 3.4-.9 5.7 0 2.233.283 4.067.85 5.5.6 1.4 1.4 2.45 2.4 3.15 1.033.7 2.2 1.05 3.5 1.05 1.333 0 2.516-.4 3.55-1.2 1.066-.8 2.083-1.9 3.05-3.3l.35 1.7h-.65a13.051 13.051 0 0 1-1.9 2.55 8.69 8.69 0 0 1-2.5 1.75c-.934.4-1.967.6-3.1.6Zm7.1-.1-.15-4.85v-14.6l.05-.45v-14.1l-3.85-.75v-1l7.1-1.9.5.4-.2 9.15v26.05l3.6.5v1.05l-7.05.5ZM55.743 145.135v-1.1l5.55-.65h1.2v1.75h-6.75Zm4.15 0c.067-1.433.117-3.033.15-4.8.034-1.767.05-3.583.05-5.45v-13.1c0-1.867-.017-3.667-.05-5.4a176.12 176.12 0 0 0-.15-4.75h4.25a166.87 166.87 0 0 0-.15 4.75 280.54 280.54 0 0 0-.05 5.4V134.835c0 1.9.017 3.733.05 5.5s.083 3.367.15 4.8h-4.25Zm2.1 0v-1.55h15.55l-1.85.85 2.6-8.6h1.3l-.5 9.3h-17.1Zm0-16.35v-1.5h9.55v1.5h-9.55Zm10 4.85-1.3-5.15v-1l1.3-5.05h1.15v11.2h-1.15Zm-16.25-20.9v-1.1h6.75v1.75h-1.2l-5.55-.65Zm21.7 7.8-2.6-8.2 1.85.8h-14.75v-1.5h16.3l.5 8.9h-1.3ZM83.424 145.135v-1.05l5-.7h1l4.8.7v1.05h-10.8Zm3.55 0c.067-.767.1-1.783.1-3.05.033-1.267.05-2.567.05-3.9.033-1.367.05-2.583.05-3.65v-2.3c0-.933-.017-1.75-.05-2.45 0-.733-.017-1.417-.05-2.05 0-.667-.017-1.333-.05-2l-3.8-.75v-.95l6.9-2.4.45.4.15 5.15v11c.033 1.333.067 2.633.1 3.9s.067 2.283.1 3.05h-3.95Zm11 0v-1.05l4.95-.7h.95l4.85.7v1.05h-10.75Zm3.5 0c.067-.767.1-1.783.1-3.05.033-1.267.05-2.567.05-3.9.033-1.367.05-2.583.05-3.65v-4.55c0-2.2-.317-3.683-.95-4.45-.633-.767-1.683-1.15-3.15-1.15-.8 0-1.6.133-2.4.4-.767.267-1.55.667-2.35 1.2-.767.533-1.583 1.2-2.45 2l-.5-1h.25a20.01 20.01 0 0 1 2.5-2.55c.967-.833 2.017-1.5 3.15-2 1.167-.533 2.333-.8 3.5-.8 1.967 0 3.45.633 4.45 1.9 1.033 1.233 1.55 3.35 1.55 6.35v8.3c.033 1.333.05 2.633.05 3.9.033 1.267.067 2.283.1 3.05h-3.95ZM116.095 123.785v-1.55h8.051v1.55h-8.051Zm3.301 21.95c-1.601 0-2.884-.433-3.851-1.3-.966-.867-1.45-2.167-1.45-3.9v-2.4c.034-.733.051-1.65.051-2.75l.049-11.6h-3.9v-1.15l5.75-.85-1.899 1.25 2.299-8.2h1.55l-.2 8.1v17.15c0 1.3.25 2.233.75 2.8.5.533 1.167.8 2.001.8.666 0 1.266-.133 1.799-.4.567-.267 1.1-.65 1.6-1.15l.701.65a5.457 5.457 0 0 1-1.25 1.6c-.5.433-1.067.767-1.701 1-.633.233-1.399.35-2.299.35ZM127.37 145.135v-1.05l4.95-.7h1.05l5.351.7v1.05H127.37Zm3.5 0c.067-.767.101-1.783.101-3.05.033-1.267.049-2.567.049-3.9.034-1.367.05-2.583.05-3.65v-2.3c0-.933-.016-1.75-.05-2.45 0-.733-.016-1.417-.049-2.05 0-.667-.017-1.333-.05-2l-3.801-.75v-.95l6.9-2.4.451.4.149 7.3v8.85c.034 1.333.067 2.633.101 3.9.033 1.267.066 2.283.099 3.05h-3.95Zm3.5-12.95-.649-2.95h.649c.567-1.7 1.234-3.1 2-4.2.767-1.1 1.617-1.933 2.551-2.5.966-.6 1.949-.9 2.949-.9.734 0 1.384.167 1.95.5.6.3 1.017.8 1.25 1.5-.033.867-.316 1.55-.849 2.05-.5.467-1.134.7-1.901.7a3.314 3.314 0 0 1-1.5-.35 7.45 7.45 0 0 1-1.349-1l-1.25-1.25 2.099-.35c-1.233.567-2.4 1.6-3.5 3.1-1.066 1.467-1.883 3.35-2.45 5.65ZM157.753 145.735c-2.033 0-3.85-.467-5.45-1.4-1.6-.933-2.85-2.267-3.75-4-.9-1.733-1.35-3.8-1.35-6.2 0-2.533.467-4.733 1.4-6.6.967-1.867 2.233-3.317 3.8-4.35 1.6-1.033 3.333-1.55 5.2-1.55 1.567 0 3 .35 4.3 1.05 1.3.7 2.317 1.7 3.05 3 .767 1.3 1.15 2.85 1.15 4.65 0 .533-.033 1.017-.1 1.45-.033.433-.1.8-.2 1.1h-17.15v-1.35h11.4c1.033 0 1.733-.2 2.1-.6.4-.433.6-1.05.6-1.85 0-1.267-.217-2.35-.65-3.25-.4-.9-.983-1.583-1.75-2.05-.767-.5-1.683-.75-2.75-.75-1.1 0-2.167.35-3.2 1.05-1.033.667-1.883 1.767-2.55 3.3-.633 1.5-.95 3.483-.95 5.95 0 2.033.333 3.783 1 5.25s1.583 2.583 2.75 3.35c1.2.767 2.567 1.15 4.1 1.15 1.5 0 2.8-.3 3.9-.9a10.366 10.366 0 0 0 3-2.55l.8.5c-.6 1.267-1.333 2.317-2.2 3.15a9.379 9.379 0 0 1-2.95 1.85c-1.067.4-2.25.6-3.55.6ZM169.751 157.835v-1.05l5-.7h.95l5.5.7v1.05h-11.45Zm3.6 0c.067-.867.1-1.917.1-3.15.033-1.233.05-2.517.05-3.85.033-1.3.05-2.5.05-3.6v-15c0-.933-.017-1.75-.05-2.45 0-.733-.017-1.417-.05-2.05 0-.667-.017-1.333-.05-2l-3.8-.75v-.95l6.9-2.4.5.4.1 4.25.05.15v14.85l-.05.25v9.3c.033 1.333.067 2.617.1 3.85s.067 2.283.1 3.15h-3.95Zm10.3-12.1c-.9 0-1.783-.15-2.65-.45-.867-.3-1.7-.783-2.5-1.45-.767-.7-1.5-1.617-2.2-2.75h-.75l.35-1.6c1.267 1.5 2.433 2.567 3.5 3.2 1.067.6 2.267.9 3.6.9a5.32 5.32 0 0 0 3.3-1.1c1-.733 1.8-1.85 2.4-3.35.6-1.5.9-3.367.9-5.6 0-3.333-.633-5.8-1.9-7.4-1.233-1.6-2.783-2.4-4.65-2.4a5.82 5.82 0 0 0-2.45.55c-.767.333-1.533.85-2.3 1.55-.733.667-1.483 1.5-2.25 2.5l-.35-1.7h.75c.6-1 1.283-1.867 2.05-2.6.8-.767 1.667-1.35 2.6-1.75.933-.433 1.95-.65 3.05-.65 1.7 0 3.233.45 4.6 1.35 1.4.867 2.517 2.167 3.35 3.9.833 1.733 1.25 3.867 1.25 6.4 0 2.633-.433 4.883-1.3 6.75-.867 1.833-2.033 3.25-3.5 4.25-1.467.967-3.1 1.45-4.9 1.45ZM197.39 145.135v-1.05l4.95-.7h1.05l5.35.7v1.05h-11.35Zm3.5 0c.067-.767.1-1.783.1-3.05.033-1.267.05-2.567.05-3.9.033-1.367.05-2.583.05-3.65v-2.3c0-.933-.017-1.75-.05-2.45 0-.733-.017-1.417-.05-2.05 0-.667-.017-1.333-.05-2l-3.8-.75v-.95l6.9-2.4.45.4.15 7.3v8.85c.033 1.333.067 2.633.1 3.9s.067 2.283.1 3.05h-3.95Zm3.5-12.95-.65-2.95h.65c.567-1.7 1.233-3.1 2-4.2.767-1.1 1.617-1.933 2.55-2.5.967-.6 1.95-.9 2.95-.9.733 0 1.383.167 1.95.5.6.3 1.017.8 1.25 1.5-.033.867-.317 1.55-.85 2.05-.5.467-1.133.7-1.9.7a3.314 3.314 0 0 1-1.5-.35 7.422 7.422 0 0 1-1.35-1l-1.25-1.25 2.1-.35c-1.233.567-2.4 1.6-3.5 3.1-1.067 1.467-1.883 3.35-2.45 5.65ZM227.772 145.735c-2.033 0-3.85-.467-5.45-1.4-1.6-.933-2.85-2.267-3.75-4-.9-1.733-1.35-3.8-1.35-6.2 0-2.533.467-4.733 1.4-6.6.967-1.867 2.234-3.317 3.8-4.35 1.6-1.033 3.334-1.55 5.2-1.55 1.567 0 3 .35 4.3 1.05 1.3.7 2.317 1.7 3.05 3 .767 1.3 1.15 2.85 1.15 4.65 0 .533-.033 1.017-.1 1.45-.033.433-.1.8-.2 1.1h-17.15v-1.35h11.4c1.034 0 1.734-.2 2.1-.6.4-.433.6-1.05.6-1.85 0-1.267-.216-2.35-.65-3.25-.4-.9-.983-1.583-1.75-2.05-.766-.5-1.683-.75-2.75-.75-1.1 0-2.166.35-3.2 1.05-1.033.667-1.883 1.767-2.55 3.3-.633 1.5-.95 3.483-.95 5.95 0 2.033.334 3.783 1 5.25.667 1.467 1.584 2.583 2.75 3.35 1.2.767 2.567 1.15 4.1 1.15 1.5 0 2.8-.3 3.9-.9a10.34 10.34 0 0 0 3-2.55l.8.5c-.6 1.267-1.333 2.317-2.2 3.15a9.368 9.368 0 0 1-2.95 1.85c-1.066.4-2.25.6-3.55.6ZM240.309 145.135v-1.05l5-.7h1l4.8.7v1.05h-10.8Zm3.55 0c.066-.767.1-1.783.1-3.05.033-1.267.05-2.567.05-3.9.033-1.367.05-2.583.05-3.65v-2.3c0-.933-.017-1.75-.05-2.45 0-.733-.017-1.417-.05-2.05 0-.667-.017-1.333-.05-2l-3.8-.75v-.95l6.9-2.4.45.4.15 5.15v11c.033 1.333.066 2.633.1 3.9.033 1.267.066 2.283.1 3.05h-3.95Zm11 0v-1.05l4.95-.7h.95l4.85.7v1.05h-10.75Zm3.5 0c.066-.767.1-1.783.1-3.05.033-1.267.05-2.567.05-3.9.033-1.367.05-2.583.05-3.65v-4.55c0-2.2-.317-3.683-.95-4.45-.634-.767-1.684-1.15-3.15-1.15-.8 0-1.6.133-2.4.4-.767.267-1.55.667-2.35 1.2-.767.533-1.584 1.2-2.45 2l-.5-1h.25c.733-.9 1.566-1.75 2.5-2.55.966-.833 2.016-1.5 3.15-2 1.166-.533 2.333-.8 3.5-.8 1.966 0 3.45.633 4.45 1.9 1.033 1.233 1.55 3.35 1.55 6.35v8.3c.033 1.333.05 2.633.05 3.9.033 1.267.066 2.283.1 3.05h-3.95ZM279.774 145.735c-2.033 0-3.85-.467-5.45-1.4-1.6-.933-2.85-2.267-3.75-4-.9-1.733-1.35-3.8-1.35-6.2 0-2.533.467-4.733 1.4-6.6.967-1.867 2.234-3.317 3.8-4.35 1.6-1.033 3.334-1.55 5.2-1.55 1.567 0 3 .35 4.3 1.05 1.3.7 2.317 1.7 3.05 3 .767 1.3 1.15 2.85 1.15 4.65 0 .533-.033 1.017-.1 1.45-.033.433-.1.8-.2 1.1h-17.15v-1.35h11.4c1.034 0 1.734-.2 2.1-.6.4-.433.6-1.05.6-1.85 0-1.267-.216-2.35-.65-3.25-.4-.9-.983-1.583-1.75-2.05-.766-.5-1.683-.75-2.75-.75-1.1 0-2.166.35-3.2 1.05-1.033.667-1.883 1.767-2.55 3.3-.633 1.5-.95 3.483-.95 5.95 0 2.033.334 3.783 1 5.25.667 1.467 1.584 2.583 2.75 3.35 1.2.767 2.567 1.15 4.1 1.15 1.5 0 2.8-.3 3.9-.9a10.34 10.34 0 0 0 3-2.55l.8.5c-.6 1.267-1.333 2.317-2.2 3.15a9.368 9.368 0 0 1-2.95 1.85c-1.066.4-2.25.6-3.55.6ZM301.311 145.735c-1.934 0-3.45-.583-4.55-1.75-1.067-1.167-1.6-3.1-1.6-5.8l.05-14.55 1.05 1.4-4.55-.95v-1l6.8-1.35.45.4-.25 6.35v8.95c0 2.167.333 3.65 1 4.45.666.767 1.7 1.15 3.1 1.15.8 0 1.583-.133 2.35-.4.8-.3 1.6-.733 2.4-1.3a19.417 19.417 0 0 0 2.5-2.05l.5 1.15h-.35a16.92 16.92 0 0 1-2.5 2.65c-.934.8-1.95 1.45-3.05 1.95a8.268 8.268 0 0 1-3.35.7Zm8.55-.15-.15-5.2v-15.6l-3.6-.7v-1l6.9-1.35.45.4-.2 6.35v15.1l3.35.5v1.05l-6.75.45ZM319.949 145.135v-1.05l4.95-.7h1.05l5.35.7v1.05h-11.35Zm3.5 0c.066-.767.1-1.783.1-3.05.033-1.267.05-2.567.05-3.9.033-1.367.05-2.583.05-3.65v-2.3c0-.933-.017-1.75-.05-2.45 0-.733-.017-1.417-.05-2.05 0-.667-.017-1.333-.05-2l-3.8-.75v-.95l6.9-2.4.45.4.15 7.3v8.85c.033 1.333.066 2.633.1 3.9.033 1.267.066 2.283.1 3.05h-3.95Zm3.5-12.95-.65-2.95h.65c.566-1.7 1.233-3.1 2-4.2.766-1.1 1.616-1.933 2.55-2.5.966-.6 1.95-.9 2.95-.9.733 0 1.383.167 1.95.5.6.3 1.016.8 1.25 1.5-.034.867-.317 1.55-.85 2.05-.5.467-1.134.7-1.9.7a3.308 3.308 0 0 1-1.5-.35 7.422 7.422 0 0 1-1.35-1l-1.25-1.25 2.1-.35c-1.234.567-2.4 1.6-3.5 3.1-1.067 1.467-1.884 3.35-2.45 5.65ZM340.015 145.135v-1.05l4.95-.7h1l4.85.7v1.05h-10.8Zm3.55 0c.066-.767.1-1.783.1-3.05.033-1.267.05-2.567.05-3.9.033-1.367.05-2.583.05-3.65v-2.3c0-1.4-.017-2.567-.05-3.5 0-.967-.034-1.967-.1-3l-3.8-.75v-.95l7.2-2.4.5.4-.2 6.45v9.7c.033 1.333.066 2.633.1 3.9.033 1.267.066 2.283.1 3.05h-3.95Zm1.8-28.7c-.767 0-1.434-.25-2-.75-.534-.5-.8-1.183-.8-2.05 0-.833.266-1.5.8-2 .566-.5 1.233-.75 2-.75.8 0 1.466.25 2 .75.566.5.85 1.167.85 2 0 .867-.284 1.55-.85 2.05-.534.5-1.2.75-2 .75ZM360.329 145.735c-1.7 0-3.133-.483-4.299-1.45-1.167-.967-1.75-2.4-1.75-4.3 0-.933.183-1.817.549-2.65.367-.867 1.084-1.667 2.15-2.4 1.1-.767 2.701-1.483 4.801-2.15.6-.2 1.249-.4 1.949-.6a47.413 47.413 0 0 1 2.451-.7c.9-.267 1.883-.533 2.949-.8v1.05c-1.533.467-2.833.883-3.9 1.25a46.392 46.392 0 0 0-2.449.85c-1.434.567-2.484 1.167-3.151 1.8-.666.6-1.1 1.2-1.3 1.8-.2.6-.299 1.183-.299 1.75 0 1.4.366 2.4 1.099 3 .734.6 1.634.9 2.7.9.7 0 1.351-.083 1.951-.25.6-.167 1.266-.5 2-1 .766-.5 1.699-1.25 2.799-2.25l.451 2.05h-1.5c-.767.967-1.534 1.75-2.301 2.35a7.126 7.126 0 0 1-2.35 1.3c-.8.3-1.65.45-2.55.45Zm10.951-.2c-1.3 0-2.3-.383-3-1.15-.7-.767-1.067-1.833-1.1-3.2v-11.6c0-1.633-.167-2.917-.5-3.85-.3-.933-.784-1.583-1.451-1.95-.666-.4-1.533-.6-2.6-.6a9.23 9.23 0 0 0-1.9.2c-.633.133-1.316.333-2.049.6l1.549-1.1-1 4.05c-.166.7-.45 1.25-.85 1.65-.366.367-.833.55-1.4.55-.6 0-1.05-.167-1.35-.5-.3-.367-.483-.833-.55-1.4.367-1.7 1.351-3.05 2.951-4.05 1.633-1.033 3.566-1.55 5.799-1.55 1.6 0 2.9.283 3.9.85 1.034.533 1.801 1.4 2.301 2.6.5 1.2.75 2.75.75 4.65v11c0 1.067.149 1.8.449 2.2.3.4.701.6 1.201.6.433 0 .8-.1 1.1-.3.3-.2.633-.517 1-.95l.65.55c-.4.833-.917 1.5-1.551 2-.633.467-1.416.7-2.349.7ZM377.073 145.135v-1.05l5-.7h1l4.95.7v1.05h-10.95Zm3.6 0c.067-.867.1-1.917.1-3.15.033-1.267.05-2.55.05-3.85.033-1.3.05-2.5.05-3.6v-22.9l-3.95-.75v-1l7.2-1.9.5.4-.2 8.25v21.5l.1 3.85c.033 1.233.067 2.283.1 3.15h-3.95ZM156.306 214.935c-2.266 0-4.333-.417-6.2-1.25a14.17 14.17 0 0 1-4.85-3.55c-1.366-1.533-2.433-3.383-3.2-5.55-.733-2.167-1.1-4.583-1.1-7.25 0-2.633.384-5.017 1.15-7.15.8-2.167 1.884-4.017 3.25-5.55a14.681 14.681 0 0 1 4.9-3.55c1.867-.833 3.884-1.25 6.05-1.25 1.234 0 2.6.15 4.1.45 1.534.3 3.05.933 4.55 1.9l.45 7.65h-1.4l-2.5-8.1 2.5.5.15 1.7c-1.366-1.067-2.666-1.783-3.9-2.15-1.2-.367-2.4-.55-3.6-.55-2.066 0-3.966.633-5.7 1.9-1.7 1.233-3.066 3.067-4.1 5.5-1.033 2.4-1.55 5.333-1.55 8.8 0 3.467.484 6.4 1.45 8.8.967 2.367 2.284 4.167 3.95 5.4 1.667 1.233 3.584 1.85 5.75 1.85 1.167 0 2.45-.167 3.85-.5 1.4-.333 2.767-1.05 4.1-2.15v1.7l-2.5.45 2.5-8.15h1.4l-.4 7.7c-1.466.9-2.966 1.517-4.5 1.85-1.5.367-3.033.55-4.6.55ZM181.242 214.735c-1.867 0-3.617-.433-5.25-1.3-1.6-.9-2.9-2.233-3.9-4-1-1.8-1.5-4.017-1.5-6.65s.5-4.85 1.5-6.65c1-1.833 2.3-3.2 3.9-4.1a10.412 10.412 0 0 1 5.25-1.4c1.866 0 3.6.45 5.2 1.35 1.6.9 2.9 2.233 3.9 4 1.033 1.767 1.55 3.983 1.55 6.65 0 2.6-.517 4.817-1.55 6.65-1 1.8-2.3 3.167-3.9 4.1-1.6.9-3.334 1.35-5.2 1.35Zm0-1.35c1.366 0 2.55-.417 3.55-1.25s1.766-2.05 2.3-3.65c.533-1.6.8-3.55.8-5.85s-.267-4.233-.8-5.8c-.534-1.6-1.3-2.8-2.3-3.6-1-.833-2.184-1.25-3.55-1.25-1.4 0-2.6.417-3.6 1.25s-1.767 2.067-2.3 3.7c-.534 1.6-.8 3.55-.8 5.85s.266 4.233.8 5.8c.533 1.567 1.3 2.767 2.3 3.6 1 .8 2.2 1.2 3.6 1.2ZM195.826 214.135v-1.05l5-.7h1l4.8.7v1.05h-10.8Zm3.55 0c.067-.767.1-1.783.1-3.05.034-1.267.05-2.567.05-3.9.034-1.367.05-2.583.05-3.65v-2.3c0-.933-.016-1.75-.05-2.45 0-.733-.016-1.417-.05-2.05 0-.667-.016-1.333-.05-2l-3.8-.75v-.95l6.9-2.4.45.4.15 5.15v11l.1 3.9c.034 1.267.067 2.283.1 3.05h-3.95Zm11 0v-1.05l4.95-.7h.95l4.85.7v1.05h-10.75Zm3.5 0c.067-.767.1-1.783.1-3.05.034-1.267.05-2.567.05-3.9.034-1.367.05-2.583.05-3.65v-4.55c0-2.2-.316-3.683-.95-4.45-.633-.767-1.683-1.15-3.15-1.15-.8 0-1.6.133-2.4.4-.766.267-1.55.667-2.35 1.2-.766.533-1.583 1.2-2.45 2l-.5-1h.25c.734-.9 1.567-1.75 2.5-2.55.967-.833 2.017-1.5 3.15-2 1.167-.533 2.334-.8 3.5-.8 1.967 0 3.45.633 4.45 1.9 1.034 1.233 1.55 3.35 1.55 6.35v8.3c.034 1.333.05 2.633.05 3.9.034 1.267.067 2.283.1 3.05h-3.95ZM228.498 192.785v-1.55h8.05v1.55h-8.05Zm3.3 21.95c-1.6 0-2.883-.433-3.85-1.3-.967-.867-1.45-2.167-1.45-3.9v-2.4c.033-.733.05-1.65.05-2.75l.05-11.6h-3.9v-1.15l5.75-.85-1.9 1.25 2.3-8.2h1.55l-.2 8.1v17.15c0 1.3.25 2.233.75 2.8.5.533 1.167.8 2 .8.667 0 1.267-.133 1.8-.4.567-.267 1.1-.65 1.6-1.15l.7.65a5.44 5.44 0 0 1-1.25 1.6c-.5.433-1.067.767-1.7 1-.633.233-1.4.35-2.3.35ZM250.282 214.735c-2.033 0-3.85-.467-5.45-1.4-1.6-.933-2.85-2.267-3.75-4-.9-1.733-1.35-3.8-1.35-6.2 0-2.533.467-4.733 1.4-6.6.967-1.867 2.234-3.317 3.8-4.35 1.6-1.033 3.334-1.55 5.2-1.55 1.567 0 3 .35 4.3 1.05 1.3.7 2.317 1.7 3.05 3 .767 1.3 1.15 2.85 1.15 4.65 0 .533-.033 1.017-.1 1.45-.033.433-.1.8-.2 1.1h-17.15v-1.35h11.4c1.034 0 1.734-.2 2.1-.6.4-.433.6-1.05.6-1.85 0-1.267-.216-2.35-.65-3.25-.4-.9-.983-1.583-1.75-2.05-.766-.5-1.683-.75-2.75-.75-1.1 0-2.166.35-3.2 1.05-1.033.667-1.883 1.767-2.55 3.3-.633 1.5-.95 3.483-.95 5.95 0 2.033.334 3.783 1 5.25.667 1.467 1.584 2.583 2.75 3.35 1.2.767 2.567 1.15 4.1 1.15 1.5 0 2.8-.3 3.9-.9a10.34 10.34 0 0 0 3-2.55l.8.5c-.6 1.267-1.333 2.317-2.2 3.15a9.368 9.368 0 0 1-2.95 1.85c-1.066.4-2.25.6-3.55.6ZM262.819 214.135v-1.05l5-.7h1l4.8.7v1.05h-10.8Zm3.55 0c.066-.767.1-1.783.1-3.05.033-1.267.05-2.567.05-3.9.033-1.367.05-2.583.05-3.65v-2.3c0-.933-.017-1.75-.05-2.45 0-.733-.017-1.417-.05-2.05 0-.667-.017-1.333-.05-2l-3.8-.75v-.95l6.9-2.4.45.4.15 5.15v11c.033 1.333.066 2.633.1 3.9.033 1.267.066 2.283.1 3.05h-3.95Zm11 0v-1.05l4.95-.7h.95l4.85.7v1.05h-10.75Zm3.5 0c.066-.767.1-1.783.1-3.05.033-1.267.05-2.567.05-3.9.033-1.367.05-2.583.05-3.65v-4.55c0-2.2-.317-3.683-.95-4.45-.634-.767-1.684-1.15-3.15-1.15-.8 0-1.6.133-2.4.4-.767.267-1.55.667-2.35 1.2-.767.533-1.584 1.2-2.45 2l-.5-1h.25c.733-.9 1.566-1.75 2.5-2.55.966-.833 2.016-1.5 3.15-2 1.166-.533 2.333-.8 3.5-.8 1.966 0 3.45.633 4.45 1.9 1.033 1.233 1.55 3.35 1.55 6.35v8.3c.033 1.333.05 2.633.05 3.9.033 1.267.066 2.283.1 3.05h-3.95ZM295.49 192.785v-1.55h8.05v1.55h-8.05Zm3.3 21.95c-1.6 0-2.883-.433-3.85-1.3-.967-.867-1.45-2.167-1.45-3.9v-2.4c.033-.733.05-1.65.05-2.75l.05-11.6h-3.9v-1.15l5.75-.85-1.9 1.25 2.3-8.2h1.55l-.2 8.1v17.15c0 1.3.25 2.233.75 2.8.5.533 1.167.8 2 .8.667 0 1.267-.133 1.8-.4.567-.267 1.1-.65 1.6-1.15l.7.65a5.44 5.44 0 0 1-1.25 1.6c-.5.433-1.067.767-1.7 1-.633.233-1.4.35-2.3.35Z" fill="#76A1D8"/><path d="M85.994 79.885h271.14v2.5H85.994v-2.5Zm-32.25 69h335.629v2.5H53.743v-2.5Zm84.862 69H304.54v2.5H138.606v-2.5Z" fill="#76A1D8"/></svg>