<svg width="412" height="232" fill="none" xmlns="http://www.w3.org/2000/svg"><path d="M0 10.303c0-5.523 4.477-10 10-10h391.448c5.523 0 10 4.477 10 10V222c0 5.523-4.477 10-10 10H10c-5.523 0-10-4.477-10-10V10.303Z" fill="#fff" fill-opacity=".59"/><path d="M64.318 114.367c-2.4 0-4.566-.417-6.5-1.25a13.936 13.936 0 0 1-4.95-3.55c-1.333-1.567-2.366-3.417-3.1-5.55-.733-2.167-1.1-4.584-1.1-7.25 0-2.634.384-5.017 1.15-7.15.8-2.134 1.9-3.967 3.3-5.5a14.244 14.244 0 0 1 4.95-3.6c1.934-.834 4.034-1.25 6.3-1.25.834 0 1.75.066 2.75.2 1 .133 2.017.366 3.05.7 1.034.333 2.017.816 2.95 1.45l.4 7.65h-1.35l-2.55-8.15 2.5.55.15 1.8c-1.333-1.1-2.65-1.834-3.95-2.2-1.266-.4-2.533-.6-3.8-.6-2.1 0-4.016.633-5.75 1.9-1.733 1.266-3.133 3.1-4.2 5.5-1.033 2.4-1.55 5.333-1.55 8.8 0 3.433.467 6.35 1.4 8.75.934 2.4 2.25 4.216 3.95 5.45 1.734 1.233 3.8 1.85 6.2 1.85 1.067 0 2.134-.117 3.2-.35 1.1-.267 2.234-.717 3.4-1.35l-1.3 1.25v-3.3c0-2.1-.016-4.1-.05-6-.033-1.9-.083-3.734-.15-5.5h4.1c-.066 1.766-.116 3.6-.15 5.5-.033 1.866-.05 3.866-.05 6v2.55a20.694 20.694 0 0 1-4.5 1.95c-1.533.466-3.116.7-4.75.7Zm.35-15.6v-1.1h12.05v1.1l-4.45.6h-1.3l-6.3-.6ZM79.37 113.567v-1.05l4.95-.7h1.05l5.35.7v1.05H79.37Zm3.5 0c.066-.767.1-1.784.1-3.05.033-1.267.05-2.567.05-3.9.033-1.367.05-2.584.05-3.65v-2.3c0-.934-.017-1.75-.05-2.45 0-.734-.017-1.417-.05-2.05 0-.667-.017-1.334-.05-2l-3.8-.75v-.95l6.9-2.4.45.4.15 7.3v8.85c.033 1.333.066 2.633.1 3.9.033 1.266.066 2.283.1 3.05h-3.95Zm3.5-12.95-.65-2.95h.65c.566-1.7 1.233-3.1 2-4.2.766-1.1 1.616-1.934 2.55-2.5.966-.6 1.95-.9 2.95-.9.733 0 1.383.166 1.95.5.6.3 1.016.8 1.25 1.5-.034.866-.317 1.55-.85 2.05-.5.466-1.134.7-1.9.7a3.307 3.307 0 0 1-1.5-.35 7.43 7.43 0 0 1-1.35-1l-1.25-1.25 2.1-.35c-1.234.566-2.4 1.6-3.5 3.1-1.067 1.466-1.884 3.35-2.45 5.65ZM105.053 114.167c-1.7 0-3.133-.484-4.3-1.45-1.166-.967-1.75-2.4-1.75-4.3 0-.934.183-1.817.55-2.65.367-.867 1.083-1.667 2.15-2.4 1.1-.767 2.7-1.484 4.8-2.15.6-.2 1.25-.4 1.95-.6a46.38 46.38 0 0 1 2.45-.7c.9-.267 1.883-.534 2.95-.8v1.05c-1.533.466-2.833.883-3.9 1.25-1.033.333-1.85.616-2.45.85-1.433.566-2.483 1.166-3.15 1.8-.667.6-1.1 1.2-1.3 1.8-.2.6-.3 1.183-.3 1.75 0 1.4.367 2.4 1.1 3 .733.6 1.633.9 2.7.9.7 0 1.35-.084 1.95-.25.6-.167 1.267-.5 2-1 .767-.5 1.7-1.25 2.8-2.25l.45 2.05h-1.5c-.767.966-1.533 1.75-2.3 2.35a7.136 7.136 0 0 1-2.35 1.3c-.8.3-1.65.45-2.55.45Zm10.95-.2c-1.3 0-2.3-.384-3-1.15-.7-.767-1.067-1.834-1.1-3.2v-11.6c0-1.634-.167-2.917-.5-3.85-.3-.934-.783-1.584-1.45-1.95-.667-.4-1.533-.6-2.6-.6-.633 0-1.267.066-1.9.2-.633.133-1.317.333-2.05.6l1.55-1.1-1 4.05c-.167.7-.45 1.25-.85 1.65-.367.366-.833.55-1.4.55-.6 0-1.05-.167-1.35-.5-.3-.367-.483-.834-.55-1.4.367-1.7 1.35-3.05 2.95-4.05 1.633-1.034 3.567-1.55 5.8-1.55 1.6 0 2.9.283 3.9.85 1.033.533 1.8 1.4 2.3 2.6.5 1.2.75 2.75.75 4.65v11c0 1.066.15 1.8.45 2.2.3.4.7.6 1.2.6.433 0 .8-.1 1.1-.3.3-.2.633-.517 1-.95l.65.55c-.4.833-.917 1.5-1.55 2-.633.466-1.417.7-2.35.7ZM121.115 126.267v-1.05l5-.7h.95l5.5.7v1.05h-11.45Zm3.6 0c.067-.867.1-1.917.1-3.15.034-1.234.05-2.517.05-3.85.034-1.3.05-2.5.05-3.6v-15c0-.934-.016-1.75-.05-2.45 0-.734-.016-1.417-.05-2.05 0-.667-.016-1.334-.05-2l-3.8-.75v-.95l6.9-2.4.5.4.1 4.25.05.15v14.85l-.05.25v9.3l.1 3.85c.034 1.233.067 2.283.1 3.15h-3.95Zm10.3-12.1c-.9 0-1.783-.15-2.65-.45-.866-.3-1.7-.784-2.5-1.45-.766-.7-1.5-1.617-2.2-2.75h-.75l.35-1.6c1.267 1.5 2.434 2.566 3.5 3.2 1.067.6 2.267.9 3.6.9a5.316 5.316 0 0 0 3.3-1.1c1-.734 1.8-1.85 2.4-3.35.6-1.5.9-3.367.9-5.6 0-3.334-.633-5.8-1.9-7.4-1.233-1.6-2.783-2.4-4.65-2.4-.833 0-1.65.183-2.45.55-.766.333-1.533.85-2.3 1.55-.733.666-1.483 1.5-2.25 2.5l-.35-1.7h.75c.6-1 1.284-1.867 2.05-2.6.8-.767 1.667-1.35 2.6-1.75.934-.434 1.95-.65 3.05-.65 1.7 0 3.234.45 4.6 1.35 1.4.866 2.517 2.166 3.35 3.9.834 1.733 1.25 3.866 1.25 6.4 0 2.633-.433 4.883-1.3 6.75-.866 1.833-2.033 3.25-3.5 4.25-1.466.966-3.1 1.45-4.9 1.45ZM148.116 113.567v-1.05l4.95-.7h1l4.8.7v1.05h-10.75Zm3.55 0c.067-.767.1-1.784.1-3.05.033-1.267.05-2.567.05-3.9.033-1.367.05-2.584.05-3.65v-22.9l-3.95-.75v-1l7.2-1.9.45.4-.2 9.15v9.35l.05.2v11.1c.033 1.333.067 2.633.1 3.9.033 1.266.067 2.283.1 3.05h-3.95Zm11.05 0v-1.05l4.95-.7h.95l4.85.7v1.05h-10.75Zm3.45 0c.067-.767.1-1.784.1-3.05.033-1.267.05-2.567.05-3.9.033-1.367.05-2.584.05-3.65v-4.55c0-2.2-.317-3.684-.95-4.45-.6-.767-1.633-1.15-3.1-1.15-.8 0-1.6.133-2.4.4-.767.266-1.55.666-2.35 1.2-.767.533-1.6 1.2-2.5 2l-.5-1h.25c.733-.9 1.583-1.75 2.55-2.55a12.6 12.6 0 0 1 3.15-2c1.133-.534 2.3-.8 3.5-.8 1.967 0 3.45.633 4.45 1.9 1 1.233 1.5 3.35 1.5 6.35v8.3c.033 1.333.067 2.633.1 3.9.033 1.266.067 2.283.1 3.05h-4ZM176.633 113.567v-1.05l4.95-.7h1l4.85.7v1.05h-10.8Zm3.55 0c.066-.767.1-1.784.1-3.05.033-1.267.05-2.567.05-3.9.033-1.367.05-2.584.05-3.65v-2.3c0-1.4-.017-2.567-.05-3.5 0-.967-.033-1.967-.1-3l-3.8-.75v-.95l7.2-2.4.5.4-.2 6.45v9.7c.033 1.333.066 2.633.1 3.9.033 1.266.066 2.283.1 3.05h-3.95Zm1.8-28.7c-.767 0-1.434-.25-2-.75-.534-.5-.8-1.184-.8-2.05 0-.834.266-1.5.8-2 .566-.5 1.233-.75 2-.75.8 0 1.467.25 2 .75.567.5.85 1.166.85 2 0 .866-.283 1.55-.85 2.05-.533.5-1.2.75-2 .75ZM201.302 114.167c-2.133 0-4-.45-5.6-1.35-1.566-.934-2.8-2.284-3.7-4.05-.866-1.767-1.3-3.884-1.3-6.35 0-2.667.534-4.917 1.6-6.75 1.067-1.867 2.434-3.267 4.1-4.2 1.7-.934 3.484-1.4 5.35-1.4 1.367 0 2.584.25 3.65.75 1.1.466 2 1.15 2.7 2.05.7.866 1.15 1.85 1.35 2.95-.066.566-.266 1.016-.6 1.35-.333.3-.8.45-1.4.45-.6 0-1.1-.2-1.5-.6-.366-.4-.633-.934-.8-1.6l-1-4.1 1.5 1.45c-.6-.567-1.266-.917-2-1.05-.7-.167-1.316-.25-1.85-.25-1.566 0-2.9.45-4 1.35-1.066.9-1.883 2.116-2.45 3.65-.566 1.533-.85 3.266-.85 5.2 0 1.866.284 3.55.85 5.05.6 1.5 1.484 2.683 2.65 3.55 1.167.833 2.584 1.25 4.25 1.25.967 0 1.834-.117 2.6-.35a7.088 7.088 0 0 0 2.2-1.2c.7-.534 1.35-1.184 1.95-1.95l.8.55c-.6 1.233-1.316 2.266-2.15 3.1a8.04 8.04 0 0 1-2.8 1.9c-1.066.4-2.25.6-3.55.6ZM223.416 113.567v-1.1l5.55-.65h1.2v1.75h-6.75Zm4.15 0c.067-1.434.117-3.034.15-4.8.033-1.767.05-3.6.05-5.5V90.217c0-1.867-.017-3.667-.05-5.4a172.892 172.892 0 0 0-.15-4.75h4.25a164.72 164.72 0 0 0-.15 4.75 283.88 283.88 0 0 0-.05 5.4V103.267c0 1.9.017 3.733.05 5.5.033 1.766.083 3.366.15 4.8h-4.25Zm2.45 0v-1.5h5.4c2.633 0 4.833-.617 6.6-1.85 1.8-1.267 3.15-3.034 4.05-5.3.9-2.3 1.35-4.984 1.35-8.05 0-5.2-1-9.05-3-11.55-1.967-2.534-4.817-3.8-8.55-3.8h-5.85v-1.45h6.35c3.067 0 5.75.65 8.05 1.95 2.3 1.3 4.1 3.2 5.4 5.7 1.333 2.466 2 5.516 2 9.15 0 3.6-.717 6.65-2.15 9.15-1.4 2.466-3.317 4.35-5.75 5.65-2.4 1.266-5.083 1.9-8.05 1.9h-5.85Zm-6.6-32.4v-1.1h6.75v1.75h-1.2l-5.55-.65ZM266.93 114.167c-2.034 0-3.85-.467-5.45-1.4-1.6-.934-2.85-2.267-3.75-4-.9-1.734-1.35-3.8-1.35-6.2 0-2.534.466-4.734 1.4-6.6.966-1.867 2.233-3.317 3.8-4.35 1.6-1.034 3.333-1.55 5.2-1.55 1.566 0 3 .35 4.3 1.05 1.3.7 2.316 1.7 3.05 3 .766 1.3 1.15 2.85 1.15 4.65a9.68 9.68 0 0 1-.1 1.45c-.034.433-.1.8-.2 1.1h-17.15v-1.35h11.4c1.033 0 1.733-.2 2.1-.6.4-.434.6-1.05.6-1.85 0-1.267-.217-2.35-.65-3.25-.4-.9-.984-1.584-1.75-2.05-.767-.5-1.684-.75-2.75-.75-1.1 0-2.167.35-3.2 1.05-1.034.666-1.884 1.766-2.55 3.3-.634 1.5-.95 3.483-.95 5.95 0 2.033.333 3.783 1 5.25.666 1.466 1.583 2.583 2.75 3.35 1.2.766 2.566 1.15 4.1 1.15 1.5 0 2.8-.3 3.9-.9a10.397 10.397 0 0 0 3-2.55l.8.5c-.6 1.266-1.334 2.316-2.2 3.15a9.397 9.397 0 0 1-2.95 1.85c-1.067.4-2.25.6-3.55.6ZM287.216 114.167c-1.433 0-2.667-.15-3.7-.45-1-.267-2.083-.717-3.25-1.35l.2-6.05h1.2l1.85 6.5h-1.8v-1.3c.8.466 1.633.816 2.5 1.05.9.233 1.917.35 3.05.35 1.167 0 2.133-.2 2.9-.6.8-.4 1.383-.917 1.75-1.55.4-.667.6-1.4.6-2.2 0-1.3-.45-2.284-1.35-2.95-.9-.667-2.033-1.267-3.4-1.8l-1.6-.65c-1-.434-1.95-.917-2.85-1.45a6.703 6.703 0 0 1-2.1-2c-.533-.834-.8-1.85-.8-3.05 0-1.234.283-2.35.85-3.35.6-1 1.467-1.784 2.6-2.35 1.167-.6 2.6-.9 4.3-.9 1.267 0 2.4.15 3.4.45 1.033.3 2.05.75 3.05 1.35l-.2 5.55h-1.2l-1.7-5.8h1.95v1.5a8.16 8.16 0 0 0-2.5-1.3c-.867-.3-1.8-.45-2.8-.45-1.567 0-2.75.383-3.55 1.15-.8.733-1.2 1.65-1.2 2.75 0 1.266.417 2.233 1.25 2.9.867.666 1.983 1.283 3.35 1.85l1.4.6c1.167.466 2.233 1 3.2 1.6.967.566 1.717 1.266 2.25 2.1.567.8.85 1.833.85 3.1 0 1.266-.317 2.416-.95 3.45-.633 1-1.583 1.8-2.85 2.4-1.267.6-2.833.9-4.7.9ZM299.582 113.567v-1.05l4.95-.7h1l4.85.7v1.05h-10.8Zm3.55 0c.067-.767.1-1.784.1-3.05.033-1.267.05-2.567.05-3.9.033-1.367.05-2.584.05-3.65v-2.3c0-1.4-.017-2.567-.05-3.5 0-.967-.033-1.967-.1-3l-3.8-.75v-.95l7.2-2.4.5.4-.2 6.45v9.7c.033 1.333.067 2.633.1 3.9.033 1.266.067 2.283.1 3.05h-3.95Zm1.8-28.7c-.767 0-1.433-.25-2-.75-.533-.5-.8-1.184-.8-2.05 0-.834.267-1.5.8-2 .567-.5 1.233-.75 2-.75.8 0 1.467.25 2 .75.567.5.85 1.166.85 2 0 .866-.283 1.55-.85 2.05-.533.5-1.2.75-2 .75ZM322.647 126.267c-2.167 0-3.95-.267-5.35-.8-1.367-.5-2.383-1.217-3.05-2.15-.667-.9-1-1.967-1-3.2 0-.834.233-1.634.7-2.4.467-.734 1.167-1.45 2.1-2.15.967-.667 2.15-1.284 3.55-1.85l.25.3c-.533.433-1.05.883-1.55 1.35a7.763 7.763 0 0 0-1.2 1.7c-.3.666-.45 1.5-.45 2.5 0 1.2.283 2.2.85 3 .567.8 1.333 1.383 2.3 1.75 1 .4 2.133.6 3.4.6 1.833 0 3.367-.284 4.6-.85 1.233-.567 2.15-1.334 2.75-2.3.633-.934.95-1.967.95-3.1 0-1.234-.4-2.217-1.2-2.95-.8-.7-2.1-1.05-3.9-1.05h-5.5c-.333 0-.717-.017-1.15-.05-.4 0-.8-.05-1.2-.15v-.1c-1.233-.134-2.217-.55-2.95-1.25-.733-.7-1.1-1.634-1.1-2.8 0-.967.3-1.884.9-2.75.633-.9 1.6-1.9 2.9-3v-.35l.9.8c-.733.666-1.233 1.316-1.5 1.95-.233.6-.35 1.183-.35 1.75 0 .866.283 1.516.85 1.95.6.433 1.5.65 2.7.65h6.15c1.7 0 3.117.233 4.25.7 1.167.433 2.033 1.1 2.6 2 .567.9.85 2.033.85 3.4 0 1.133-.25 2.216-.75 3.25-.5 1.066-1.25 2.016-2.25 2.85-1 .866-2.267 1.533-3.8 2-1.5.5-3.267.75-5.3.75Zm.4-20c-1.467 0-2.85-.284-4.15-.85-1.267-.6-2.3-1.5-3.1-2.7-.8-1.2-1.2-2.7-1.2-4.5 0-1.767.4-3.25 1.2-4.45.8-1.234 1.833-2.15 3.1-2.75a9.352 9.352 0 0 1 4.15-.95c.867 0 1.7.1 2.5.3.8.166 1.533.45 2.2.85.7.366 1.3.85 1.8 1.45l.2.15c.567.666 1 1.433 1.3 2.3.3.866.45 1.866.45 3 0 1.766-.4 3.266-1.2 4.5a7.511 7.511 0 0 1-3.1 2.75c-1.3.6-2.683.9-4.15.9Zm-.05-1.25c1 0 1.867-.267 2.6-.8.767-.567 1.35-1.367 1.75-2.4.4-1.034.6-2.284.6-3.75 0-1.467-.2-2.7-.6-3.7-.4-1-.967-1.75-1.7-2.25-.733-.534-1.6-.8-2.6-.8-.967 0-1.817.283-2.55.85-.733.533-1.3 1.316-1.7 2.35-.4 1.033-.6 2.266-.6 3.7 0 1.466.2 2.716.6 3.75.4 1 .95 1.766 1.65 2.3.733.5 1.583.75 2.55.75Zm5.6-11.45v-1h.2l5.75-2.5.45.4v3.1h-6.4ZM337.962 113.567v-1.05l5-.7h1l4.8.7v1.05h-10.8Zm3.55 0c.067-.767.1-1.784.1-3.05.033-1.267.05-2.567.05-3.9.033-1.367.05-2.584.05-3.65v-2.3c0-.934-.017-1.75-.05-2.45 0-.734-.017-1.417-.05-2.05 0-.667-.017-1.334-.05-2l-3.8-.75v-.95l6.9-2.4.45.4.15 5.15v11c.033 1.333.067 2.633.1 3.9.033 1.266.067 2.283.1 3.05h-3.95Zm11 0v-1.05l4.95-.7h.95l4.85.7v1.05h-10.75Zm3.5 0c.067-.767.1-1.784.1-3.05.033-1.267.05-2.567.05-3.9.033-1.367.05-2.584.05-3.65v-4.55c0-2.2-.317-3.684-.95-4.45-.633-.767-1.683-1.15-3.15-1.15-.8 0-1.6.133-2.4.4-.767.266-1.55.666-2.35 1.2-.767.533-1.583 1.2-2.45 2l-.5-1h.25a20.01 20.01 0 0 1 2.5-2.55 12.6 12.6 0 0 1 3.15-2c1.167-.534 2.333-.8 3.5-.8 1.967 0 3.45.633 4.45 1.9 1.033 1.233 1.55 3.35 1.55 6.35v8.3c.033 1.333.05 2.633.05 3.9.033 1.266.067 2.283.1 3.05h-3.95ZM47.094 183.167c-1.7 0-3.133-.484-4.3-1.45-1.166-.967-1.75-2.4-1.75-4.3 0-.934.184-1.817.55-2.65.367-.867 1.084-1.667 2.15-2.4 1.1-.767 2.7-1.484 4.8-2.15.6-.2 1.25-.4 1.95-.6.733-.234 1.55-.467 2.45-.7a69.73 69.73 0 0 1 2.95-.8v1.05c-1.533.466-2.833.883-3.9 1.25a45.45 45.45 0 0 0-2.45.85c-1.433.566-2.483 1.166-3.15 1.8-.666.6-1.1 1.2-1.3 1.8-.2.6-.3 1.183-.3 1.75 0 1.4.367 2.4 1.1 3 .733.6 1.634.9 2.7.9.7 0 1.35-.084 1.95-.25.6-.167 1.267-.5 2-1 .767-.5 1.7-1.25 2.8-2.25l.45 2.05h-1.5c-.766.966-1.533 1.75-2.3 2.35a7.137 7.137 0 0 1-2.35 1.3c-.8.3-1.65.45-2.55.45Zm10.95-.2c-1.3 0-2.3-.384-3-1.15-.7-.767-1.066-1.834-1.1-3.2v-11.6c0-1.634-.166-2.917-.5-3.85-.3-.934-.783-1.584-1.45-1.95-.666-.4-1.533-.6-2.6-.6-.633 0-1.267.066-1.9.2-.633.133-1.316.333-2.05.6l1.55-1.1-1 4.05c-.166.7-.45 1.25-.85 1.65-.366.366-.833.55-1.4.55-.6 0-1.05-.167-1.35-.5-.3-.367-.483-.834-.55-1.4.367-1.7 1.35-3.05 2.95-4.05 1.634-1.034 3.567-1.55 5.8-1.55 1.6 0 2.9.283 3.9.85 1.034.533 1.8 1.4 2.3 2.6.5 1.2.75 2.75.75 4.65v11c0 1.066.15 1.8.45 2.2.3.4.7.6 1.2.6.433 0 .8-.1 1.1-.3.3-.2.634-.517 1-.95l.65.55c-.4.833-.916 1.5-1.55 2-.633.466-1.416.7-2.35.7ZM63.939 182.567v-1.05l5-.7h1l4.8.7v1.05h-10.8Zm3.55 0c.066-.767.1-1.784.1-3.05.033-1.267.05-2.567.05-3.9.033-1.367.05-2.584.05-3.65v-2.3c0-.934-.017-1.75-.05-2.45 0-.734-.017-1.417-.05-2.05 0-.667-.017-1.334-.05-2l-3.8-.75v-.95l6.9-2.4.45.4.15 5.15v11c.033 1.333.066 2.633.1 3.9.033 1.266.066 2.283.1 3.05h-3.95Zm11 0v-1.05l4.95-.7h.95l4.85.7v1.05h-10.75Zm3.5 0c.066-.767.1-1.784.1-3.05.033-1.267.05-2.567.05-3.9.033-1.367.05-2.584.05-3.65v-4.55c0-2.2-.317-3.684-.95-4.45-.634-.767-1.684-1.15-3.15-1.15-.8 0-1.6.133-2.4.4-.767.266-1.55.666-2.35 1.2-.767.533-1.584 1.2-2.45 2l-.5-1h.25a20.01 20.01 0 0 1 2.5-2.55c.966-.834 2.016-1.5 3.15-2 1.166-.534 2.333-.8 3.5-.8 1.966 0 3.45.633 4.45 1.9 1.033 1.233 1.55 3.35 1.55 6.35v8.3c.033 1.333.05 2.633.05 3.9.033 1.266.066 2.283.1 3.05h-3.95ZM102.204 183.167c-1.733 0-3.3-.45-4.7-1.35-1.4-.9-2.533-2.2-3.4-3.9-.833-1.734-1.25-3.85-1.25-6.35 0-2.634.45-4.884 1.35-6.75.9-1.867 2.1-3.284 3.6-4.25 1.5-1 3.15-1.5 4.95-1.5.9 0 1.767.15 2.6.45.834.266 1.634.733 2.4 1.4.767.633 1.467 1.5 2.1 2.6h.7l-.35 1.55c-1.3-1.467-2.45-2.467-3.45-3-1-.567-2.133-.85-3.4-.85-1.2 0-2.316.366-3.35 1.1-1 .733-1.816 1.85-2.45 3.35-.6 1.5-.9 3.4-.9 5.7 0 2.233.284 4.066.85 5.5.6 1.4 1.4 2.45 2.4 3.15 1.034.7 2.2 1.05 3.5 1.05 1.334 0 2.517-.4 3.55-1.2 1.067-.8 2.084-1.9 3.05-3.3l.35 1.7h-.65a12.995 12.995 0 0 1-1.9 2.55 8.685 8.685 0 0 1-2.5 1.75c-.933.4-1.966.6-3.1.6Zm7.1-.1-.15-4.85v-14.6l.05-.45v-14.1l-3.85-.75v-1l7.1-1.9.5.4-.2 9.15v26.05l3.6.5v1.05l-7.05.5ZM128.654 182.567v-1.1l4.1-.6h1l4.95.6v1.1h-10.05Zm3.1 0 11.1-33.85h1.75l11.3 33.85h-4.25l-9.45-29.95h.95l-.25.6-9.45 29.35h-1.7Zm4.9-11.7v-1.45h13.15v1.45h-13.15Zm10 11.7v-1.1l5.6-.65h1.85l4.7.65v1.1h-12.15ZM161.254 182.567v-1.05l4.95-.7h1.05l5.35.7v1.05h-11.35Zm3.5 0c.067-.767.1-1.784.1-3.05.034-1.267.05-2.567.05-3.9.034-1.367.05-2.584.05-3.65v-2.3c0-.934-.016-1.75-.05-2.45 0-.734-.016-1.417-.05-2.05 0-.667-.016-1.334-.05-2l-3.8-.75v-.95l6.9-2.4.45.4.15 7.3v8.85l.1 3.9c.034 1.266.067 2.283.1 3.05h-3.95Zm3.5-12.95-.65-2.95h.65c.567-1.7 1.234-3.1 2-4.2.767-1.1 1.617-1.934 2.55-2.5.967-.6 1.95-.9 2.95-.9.734 0 1.384.166 1.95.5.6.3 1.017.8 1.25 1.5-.033.866-.316 1.55-.85 2.05-.5.466-1.133.7-1.9.7a3.314 3.314 0 0 1-1.5-.35 7.491 7.491 0 0 1-1.35-1l-1.25-1.25 2.1-.35c-1.233.566-2.4 1.6-3.5 3.1-1.066 1.466-1.883 3.35-2.45 5.65ZM186.503 161.217v-1.55h8.05v1.55h-8.05Zm3.3 21.95c-1.6 0-2.884-.434-3.85-1.3-.967-.867-1.45-2.167-1.45-3.9v-2.4c.033-.734.05-1.65.05-2.75l.05-11.6h-3.9v-1.15l5.75-.85-1.9 1.25 2.3-8.2h1.55l-.2 8.1v17.15c0 1.3.25 2.233.75 2.8.5.533 1.166.8 2 .8.666 0 1.266-.134 1.8-.4a5.72 5.72 0 0 0 1.6-1.15l.7.65a5.47 5.47 0 0 1-1.25 1.6c-.5.433-1.067.766-1.7 1-.634.233-1.4.35-2.3.35ZM223.784 183.367c-2.267 0-4.333-.417-6.2-1.25a14.173 14.173 0 0 1-4.85-3.55c-1.367-1.534-2.433-3.384-3.2-5.55-.733-2.167-1.1-4.584-1.1-7.25 0-2.634.383-5.017 1.15-7.15.8-2.167 1.883-4.017 3.25-5.55a14.658 14.658 0 0 1 4.9-3.55c1.867-.834 3.883-1.25 6.05-1.25 1.233 0 2.6.15 4.1.45 1.533.3 3.05.933 4.55 1.9l.45 7.65h-1.4l-2.5-8.1 2.5.5.15 1.7c-1.367-1.067-2.667-1.784-3.9-2.15-1.2-.367-2.4-.55-3.6-.55-2.067 0-3.967.633-5.7 1.9-1.7 1.233-3.067 3.066-4.1 5.5-1.033 2.4-1.55 5.333-1.55 8.8 0 3.466.483 6.4 1.45 8.8.967 2.366 2.283 4.166 3.95 5.4 1.667 1.233 3.583 1.85 5.75 1.85 1.167 0 2.45-.167 3.85-.5 1.4-.334 2.767-1.05 4.1-2.15v1.7l-2.5.45 2.5-8.15h1.4l-.4 7.7c-1.467.9-2.967 1.516-4.5 1.85-1.5.366-3.033.55-4.6.55ZM248.719 183.167a11.04 11.04 0 0 1-5.25-1.3c-1.6-.9-2.9-2.234-3.9-4-1-1.8-1.5-4.017-1.5-6.65 0-2.634.5-4.85 1.5-6.65 1-1.834 2.3-3.2 3.9-4.1a10.402 10.402 0 0 1 5.25-1.4c1.867 0 3.6.45 5.2 1.35 1.6.9 2.9 2.233 3.9 4 1.033 1.766 1.55 3.983 1.55 6.65 0 2.6-.517 4.816-1.55 6.65-1 1.8-2.3 3.166-3.9 4.1-1.6.9-3.333 1.35-5.2 1.35Zm0-1.35c1.367 0 2.55-.417 3.55-1.25 1-.834 1.767-2.05 2.3-3.65.533-1.6.8-3.55.8-5.85s-.267-4.234-.8-5.8c-.533-1.6-1.3-2.8-2.3-3.6-1-.834-2.183-1.25-3.55-1.25-1.4 0-2.6.416-3.6 1.25-1 .833-1.767 2.066-2.3 3.7-.533 1.6-.8 3.55-.8 5.85s.267 4.233.8 5.8c.533 1.566 1.3 2.766 2.3 3.6 1 .8 2.2 1.2 3.6 1.2ZM263.304 182.567v-1.05l5-.7h1l4.8.7v1.05h-10.8Zm3.55 0c.067-.767.1-1.784.1-3.05.033-1.267.05-2.567.05-3.9.033-1.367.05-2.584.05-3.65v-2.3c0-.934-.017-1.75-.05-2.45 0-.734-.017-1.417-.05-2.05 0-.667-.017-1.334-.05-2l-3.8-.75v-.95l6.9-2.4.45.4.15 5.15v11c.033 1.333.067 2.633.1 3.9.033 1.266.067 2.283.1 3.05h-3.95Zm11 0v-1.05l4.95-.7h.95l4.85.7v1.05h-10.75Zm3.5 0c.067-.767.1-1.784.1-3.05.033-1.267.05-2.567.05-3.9.033-1.367.05-2.584.05-3.65v-4.55c0-2.2-.317-3.684-.95-4.45-.633-.767-1.683-1.15-3.15-1.15-.8 0-1.6.133-2.4.4-.767.266-1.55.666-2.35 1.2-.767.533-1.583 1.2-2.45 2l-.5-1h.25a20.01 20.01 0 0 1 2.5-2.55 12.58 12.58 0 0 1 3.15-2c1.167-.534 2.333-.8 3.5-.8 1.967 0 3.45.633 4.45 1.9 1.033 1.233 1.55 3.35 1.55 6.35v8.3c.033 1.333.05 2.633.05 3.9.033 1.266.067 2.283.1 3.05h-3.95ZM295.975 161.217v-1.55h8.05v1.55h-8.05Zm3.3 21.95c-1.6 0-2.883-.434-3.85-1.3-.966-.867-1.45-2.167-1.45-3.9v-2.4c.034-.734.05-1.65.05-2.75l.05-11.6h-3.9v-1.15l5.75-.85-1.9 1.25 2.3-8.2h1.55l-.2 8.1v17.15c0 1.3.25 2.233.75 2.8.5.533 1.167.8 2 .8.667 0 1.267-.134 1.8-.4.567-.267 1.1-.65 1.6-1.15l.7.65a5.453 5.453 0 0 1-1.25 1.6 5.46 5.46 0 0 1-1.7 1c-.633.233-1.4.35-2.3.35ZM317.76 183.167c-2.034 0-3.85-.467-5.45-1.4-1.6-.934-2.85-2.267-3.75-4-.9-1.734-1.35-3.8-1.35-6.2 0-2.534.466-4.734 1.4-6.6.966-1.867 2.233-3.317 3.8-4.35 1.6-1.034 3.333-1.55 5.2-1.55 1.566 0 3 .35 4.3 1.05 1.3.7 2.316 1.7 3.05 3 .766 1.3 1.15 2.85 1.15 4.65 0 .533-.034 1.016-.1 1.45-.034.433-.1.8-.2 1.1h-17.15v-1.35h11.4c1.033 0 1.733-.2 2.1-.6.4-.434.6-1.05.6-1.85 0-1.267-.217-2.35-.65-3.25-.4-.9-.984-1.584-1.75-2.05-.767-.5-1.684-.75-2.75-.75-1.1 0-2.167.35-3.2 1.05-1.034.666-1.884 1.766-2.55 3.3-.634 1.5-.95 3.483-.95 5.95 0 2.033.333 3.783 1 5.25.666 1.466 1.583 2.583 2.75 3.35 1.2.766 2.566 1.15 4.1 1.15 1.5 0 2.8-.3 3.9-.9a10.397 10.397 0 0 0 3-2.55l.8.5c-.6 1.266-1.334 2.316-2.2 3.15a9.397 9.397 0 0 1-2.95 1.85c-1.067.4-2.25.6-3.55.6ZM330.296 182.567v-1.05l5-.7h1l4.8.7v1.05h-10.8Zm3.55 0c.067-.767.1-1.784.1-3.05.033-1.267.05-2.567.05-3.9.033-1.367.05-2.584.05-3.65v-2.3c0-.934-.017-1.75-.05-2.45 0-.734-.017-1.417-.05-2.05 0-.667-.017-1.334-.05-2l-3.8-.75v-.95l6.9-2.4.45.4.15 5.15v11c.033 1.333.067 2.633.1 3.9.033 1.266.067 2.283.1 3.05h-3.95Zm11 0v-1.05l4.95-.7h.95l4.85.7v1.05h-10.75Zm3.5 0c.067-.767.1-1.784.1-3.05.033-1.267.05-2.567.05-3.9.033-1.367.05-2.584.05-3.65v-4.55c0-2.2-.317-3.684-.95-4.45-.633-.767-1.683-1.15-3.15-1.15-.8 0-1.6.133-2.4.4-.767.266-1.55.666-2.35 1.2-.767.533-1.583 1.2-2.45 2l-.5-1h.25a20.01 20.01 0 0 1 2.5-2.55 12.58 12.58 0 0 1 3.15-2c1.167-.534 2.333-.8 3.5-.8 1.967 0 3.45.633 4.45 1.9 1.033 1.233 1.55 3.35 1.55 6.35v8.3c.033 1.333.05 2.633.05 3.9.033 1.266.067 2.283.1 3.05h-3.95ZM362.968 161.217v-1.55h8.05v1.55h-8.05Zm3.3 21.95c-1.6 0-2.884-.434-3.85-1.3-.967-.867-1.45-2.167-1.45-3.9v-2.4c.033-.734.05-1.65.05-2.75l.05-11.6h-3.9v-1.15l5.75-.85-1.9 1.25 2.3-8.2h1.55l-.2 8.1v17.15c0 1.3.25 2.233.75 2.8.5.533 1.166.8 2 .8.666 0 1.266-.134 1.8-.4a5.72 5.72 0 0 0 1.6-1.15l.7.65a5.47 5.47 0 0 1-1.25 1.6c-.5.433-1.067.766-1.7 1-.634.233-1.4.35-2.3.35Z" fill="#76A1D8"/><path d="M46.318 117.317h318.344v2.5H46.318v-2.5Zm-7.324 69h333.024v2.5H38.994v-2.5Z" fill="#76A1D8"/></svg>