<svg width="407" height="211" fill="none" xmlns="http://www.w3.org/2000/svg"><path d="M0 10C0 4.477 4.477 0 10 0h386.153c5.523 0 10 4.477 10 10v190.065c0 5.523-4.477 10-10 10H10c-5.523 0-10-4.477-10-10V10Z" fill="#fff" fill-opacity=".59"/><path d="M99.378 91.214v-.96l6.24-.72h1.86l6.96.72v.96h-15.06Zm4.8 0c.08-1.6.14-3.46.18-5.58.04-2.16.06-4.4.06-6.72V63.134c0-2.28-.02-4.46-.06-6.54-.04-2.12-.1-3.98-.18-5.58h4.74c-.08 1.6-.14 3.46-.18 5.58-.04 2.08-.06 4.26-.06 6.54V78.914c0 2.32.02 4.56.06 6.72.04 2.12.1 3.98.18 5.58h-4.74Zm1.86-17.22v-1.5h6.42c2.32 0 4.16-.44 5.52-1.32 1.4-.92 2.4-2.16 3-3.72.64-1.6.96-3.38.96-5.34 0-3-.78-5.36-2.34-7.08-1.52-1.72-3.98-2.58-7.38-2.58h-6.18v-1.44h7.26c2.88 0 5.28.48 7.2 1.44 1.96.92 3.44 2.22 4.44 3.9 1 1.64 1.5 3.56 1.5 5.76 0 2.08-.5 4.02-1.5 5.82-.96 1.8-2.52 3.26-4.68 4.38-2.16 1.12-5.02 1.68-8.58 1.68h-5.64Zm-6.66-22.02v-.96h8.04v1.68h-1.8l-6.24-.72ZM141.747 91.934c-2.2 0-4.24-.52-6.12-1.56-1.88-1.08-3.4-2.66-4.56-4.74-1.16-2.12-1.74-4.74-1.74-7.86s.58-5.74 1.74-7.86c1.16-2.16 2.68-3.78 4.56-4.86 1.88-1.12 3.92-1.68 6.12-1.68s4.24.54 6.12 1.62c1.88 1.04 3.4 2.6 4.56 4.68 1.16 2.08 1.74 4.7 1.74 7.86 0 3.08-.58 5.7-1.74 7.86-1.16 2.16-2.68 3.8-4.56 4.92-1.88 1.08-3.92 1.62-6.12 1.62Zm0-1.26c1.64 0 3.06-.5 4.26-1.5 1.2-1.04 2.12-2.54 2.76-4.5.64-1.96.96-4.34.96-7.14s-.32-5.14-.96-7.02c-.64-1.92-1.56-3.38-2.76-4.38-1.2-1-2.62-1.5-4.26-1.5-1.64 0-3.08.52-4.32 1.56-1.2 1-2.12 2.48-2.76 4.44-.64 1.96-.96 4.34-.96 7.14 0 2.76.32 5.1.96 7.02.64 1.92 1.56 3.38 2.76 4.38 1.24 1 2.68 1.5 4.32 1.5ZM158.845 91.214v-.96l5.76-.72h1.14l6.42.72v.96h-13.32Zm4.2 0c.08-.92.12-2.14.12-3.66.04-1.52.06-3.08.06-4.68.04-1.64.06-3.1.06-4.38v-2.76c0-1.12-.02-2.12-.06-3 0-.88-.02-1.7-.06-2.46 0-.8-.02-1.6-.06-2.4l-4.5-1.02v-.84l8.22-2.64.48.48v19.02c.04 1.6.08 3.16.12 4.68.04 1.52.08 2.74.12 3.66h-4.5Zm3.84-15.18-.72-3.36h.84c.68-2.08 1.48-3.8 2.4-5.16.92-1.36 1.94-2.38 3.06-3.06 1.12-.72 2.3-1.08 3.54-1.08.88 0 1.64.2 2.28.6.68.36 1.14.98 1.38 1.86-.04.92-.38 1.64-1.02 2.16-.64.52-1.36.78-2.16.78-.64 0-1.24-.14-1.8-.42a8.63 8.63 0 0 1-1.56-1.26l-1.44-1.5 2.34-.36c-1.36.56-2.72 1.78-4.08 3.66-1.36 1.84-2.38 4.22-3.06 7.14ZM188.556 65.534v-1.44h9.3v1.44h-9.3Zm3.84 26.4c-1.88 0-3.38-.5-4.5-1.5-1.12-1.04-1.68-2.56-1.68-4.56v-6.54l.12-13.8h-4.56v-.96l6.66-1.08-2.16 1.32 3-9.84h1.32l-.24 9.84v20.58c0 1.56.3 2.68.9 3.36.6.64 1.42.96 2.46.96.8 0 1.54-.16 2.22-.48.68-.36 1.3-.86 1.86-1.5l.66.54c-.4.76-.88 1.42-1.44 1.98-.52.52-1.16.92-1.92 1.2-.72.32-1.62.48-2.7.48ZM201.267 91.214v-.96l5.76-.72h1.62l6.66.72v.96h-14.04Zm4.2 0c.08-.92.12-2.14.12-3.66.04-1.52.06-3.08.06-4.68.04-1.64.06-3.1.06-4.38v-12.96h-4.68v-.96l5.88-.96-1.2 1.8.06-1.44c.12-2.68.4-4.96.84-6.84.44-1.92 1.04-3.56 1.8-4.92.76-1.36 1.68-2.56 2.76-3.6.96-.92 2.04-1.58 3.24-1.98 1.2-.44 2.4-.66 3.6-.66 1.04 0 2.04.22 3 .66.96.44 1.58 1.08 1.86 1.92-.04.64-.34 1.16-.9 1.56-.52.4-1.18.6-1.98.6-.68 0-1.32-.14-1.92-.42-.56-.28-1.24-.74-2.04-1.38l-2.16-1.74v-.24h2.88v.24c-.68.04-1.4.22-2.16.54-.76.28-1.5.96-2.22 2.04-.44.68-.84 1.5-1.2 2.46-.36.92-.66 1.98-.9 3.18-.24 1.2-.42 2.56-.54 4.08-.08 1.52-.08 3.22 0 5.1v18.3c.04 1.6.08 3.16.12 4.68.04 1.52.08 2.74.12 3.66h-4.5Zm2.04-25.68v-1.44h9.6v1.44h-9.6ZM232.274 91.934c-2.2 0-4.24-.52-6.12-1.56-1.88-1.08-3.4-2.66-4.56-4.74-1.16-2.12-1.74-4.74-1.74-7.86s.58-5.74 1.74-7.86c1.16-2.16 2.68-3.78 4.56-4.86 1.88-1.12 3.92-1.68 6.12-1.68s4.24.54 6.12 1.62c1.88 1.04 3.4 2.6 4.56 4.68 1.16 2.08 1.74 4.7 1.74 7.86 0 3.08-.58 5.7-1.74 7.86-1.16 2.16-2.68 3.8-4.56 4.92-1.88 1.08-3.92 1.62-6.12 1.62Zm0-1.26c1.64 0 3.06-.5 4.26-1.5 1.2-1.04 2.12-2.54 2.76-4.5.64-1.96.96-4.34.96-7.14s-.32-5.14-.96-7.02c-.64-1.92-1.56-3.38-2.76-4.38-1.2-1-2.62-1.5-4.26-1.5-1.64 0-3.08.52-4.32 1.56-1.2 1-2.12 2.48-2.76 4.44-.64 1.96-.96 4.34-.96 7.14 0 2.76.32 5.1.96 7.02.64 1.92 1.56 3.38 2.76 4.38 1.24 1 2.68 1.5 4.32 1.5ZM248.787 91.214v-.96l5.76-.72h1.14l5.7.72v.96h-12.6Zm4.2 0c.08-.92.12-2.14.12-3.66.04-1.52.06-3.08.06-4.68.04-1.64.06-3.1.06-4.38v-27.9l-4.68-1.02v-.84l8.46-2.16.48.48-.24 10.38V82.874c.04 1.6.08 3.16.12 4.68.04 1.52.08 2.74.12 3.66h-4.5ZM265.193 91.214v-.96l5.76-.72h1.14l5.7.72v.96h-12.6Zm4.2 0c.08-.92.12-2.14.12-3.66.04-1.52.06-3.08.06-4.68.04-1.64.06-3.1.06-4.38v-2.76c0-1.68-.02-3.1-.06-4.26 0-1.16-.04-2.36-.12-3.6l-4.5-1.02v-.84l8.46-2.64.48.48-.24 7.56v11.46c.04 1.6.08 3.16.12 4.68.04 1.52.08 2.74.12 3.66h-4.5Zm2.1-34.14c-.88 0-1.64-.28-2.28-.84-.6-.56-.9-1.34-.9-2.34 0-.96.3-1.72.9-2.28.64-.56 1.4-.84 2.28-.84.92 0 1.68.28 2.28.84.6.56.9 1.32.9 2.28 0 1-.3 1.78-.9 2.34-.6.56-1.36.84-2.28.84ZM294.266 91.934c-2.2 0-4.24-.52-6.12-1.56-1.88-1.08-3.4-2.66-4.56-4.74-1.16-2.12-1.74-4.74-1.74-7.86s.58-5.74 1.74-7.86c1.16-2.16 2.68-3.78 4.56-4.86 1.88-1.12 3.92-1.68 6.12-1.68s4.24.54 6.12 1.62c1.88 1.04 3.4 2.6 4.56 4.68 1.16 2.08 1.74 4.7 1.74 7.86 0 3.08-.58 5.7-1.74 7.86-1.16 2.16-2.68 3.8-4.56 4.92-1.88 1.08-3.92 1.62-6.12 1.62Zm0-1.26c1.64 0 3.06-.5 4.26-1.5 1.2-1.04 2.12-2.54 2.76-4.5.64-1.96.96-4.34.96-7.14s-.32-5.14-.96-7.02c-.64-1.92-1.56-3.38-2.76-4.38-1.2-1-2.62-1.5-4.26-1.5-1.64 0-3.08.52-4.32 1.56-1.2 1-2.12 2.48-2.76 4.44-.64 1.96-.96 4.34-.96 7.14 0 2.76.32 5.1.96 7.02.64 1.92 1.56 3.38 2.76 4.38 1.24 1 2.68 1.5 4.32 1.5ZM137.347 173.214v-.96l6.24-.72h1.8l6.24.72v.96h-14.28Zm4.8 0c.08-1.6.14-3.46.18-5.58.04-2.16.06-4.4.06-6.72V145.134c0-2.28-.02-4.46-.06-6.54-.04-2.12-.1-3.98-.18-5.58h4.74c-.08 1.6-.14 3.46-.18 5.58-.04 2.08-.06 4.26-.06 6.54V160.914c0 2.32.02 4.56.06 6.72.04 2.12.1 3.98.18 5.58h-4.74Zm2.1-19.8v-1.44h23.58v1.44h-23.58Zm16.08 19.8v-.96l6.24-.72h1.8l6.24.72v.96h-14.28Zm4.74 0c.08-1.6.14-3.46.18-5.58.04-2.16.06-4.4.06-6.72V145.134c0-2.28-.02-4.46-.06-6.54-.04-2.12-.1-3.98-.18-5.58h4.8c-.08 1.6-.14 3.46-.18 5.58-.04 2.08-.06 4.26-.06 6.54V160.914c0 2.32.02 4.56.06 6.72.04 2.12.1 3.98.18 5.58h-4.8Zm-27.72-39.24v-.96h14.28v.96l-6.24.72h-1.8l-6.24-.72Zm22.98 0v-.96h14.28v.96l-6.24.72h-1.8l-6.24-.72ZM190.907 173.934c-2.2 0-4.24-.52-6.12-1.56-1.88-1.08-3.4-2.66-4.56-4.74-1.16-2.12-1.74-4.74-1.74-7.86s.58-5.74 1.74-7.86c1.16-2.16 2.68-3.78 4.56-4.86 1.88-1.12 3.92-1.68 6.12-1.68s4.24.54 6.12 1.62c1.88 1.04 3.4 2.6 4.56 4.68 1.16 2.08 1.74 4.7 1.74 7.86 0 3.08-.58 5.7-1.74 7.86-1.16 2.16-2.68 3.8-4.56 4.92-1.88 1.08-3.92 1.62-6.12 1.62Zm0-1.26c1.64 0 3.06-.5 4.26-1.5 1.2-1.04 2.12-2.54 2.76-4.5.64-1.96.96-4.34.96-7.14s-.32-5.14-.96-7.02c-.64-1.92-1.56-3.38-2.76-4.38-1.2-1-2.62-1.5-4.26-1.5-1.64 0-3.08.52-4.32 1.56-1.2 1-2.12 2.48-2.76 4.44-.64 1.96-.96 4.34-.96 7.14 0 2.76.32 5.1.96 7.02.64 1.92 1.56 3.38 2.76 4.38 1.24 1 2.68 1.5 4.32 1.5ZM208.005 173.214v-.96l5.76-.72h1.14l5.7.72v.96h-12.6Zm4.2 0c.08-.92.12-2.14.12-3.66.04-1.52.06-3.08.06-4.68.04-1.64.06-3.1.06-4.38v-2.76c0-1.12-.02-2.12-.06-3 0-.88-.02-1.7-.06-2.46 0-.8-.02-1.6-.06-2.4l-4.5-1.02v-.84l8.22-2.64.48.48v19.02c.04 1.6.08 3.16.12 4.68.04 1.52.08 2.74.12 3.66h-4.5Zm12.78 0v-.96l5.7-.72h1.14l5.7.72v.96h-12.54Zm4.08 0c.08-.92.14-2.14.18-3.66.04-1.52.06-3.08.06-4.68.04-1.64.06-3.1.06-4.38v-5.58c0-2.6-.36-4.34-1.08-5.22-.72-.92-1.96-1.38-3.72-1.38-.96 0-1.9.18-2.82.54-.92.32-1.84.82-2.76 1.5-.92.64-1.9 1.42-2.94 2.34l-.48-.84h.24c.8-1.04 1.74-2.06 2.82-3.06 1.12-1 2.34-1.82 3.66-2.46 1.36-.64 2.76-.96 4.2-.96 2.28 0 4 .72 5.16 2.16 1.16 1.4 1.74 3.86 1.74 7.38v9.96c.04 1.6.08 3.16.12 4.68.04 1.52.08 2.74.12 3.66h-4.56Zm12.78 0v-.96l5.76-.72h1.08l5.76.72v.96h-12.6Zm4.14 0c.08-.92.14-2.14.18-3.66.04-1.52.06-3.08.06-4.68v-9.96c0-2.6-.36-4.34-1.08-5.22-.68-.92-1.9-1.38-3.66-1.38-.96 0-1.9.18-2.82.54-.92.32-1.84.82-2.76 1.5-.92.64-1.9 1.44-2.94 2.4l-.54-.9h.24c.8-1.04 1.76-2.06 2.88-3.06 1.12-1 2.34-1.82 3.66-2.46 1.36-.64 2.76-.96 4.2-.96 2.28 0 4 .72 5.16 2.16 1.16 1.4 1.74 3.86 1.74 7.38v9.96c.04 1.6.08 3.16.12 4.68.04 1.52.08 2.74.12 3.66h-4.56ZM270.94 173.934c-2.28 0-4.36-.54-6.24-1.62-1.84-1.12-3.3-2.7-4.38-4.74s-1.62-4.48-1.62-7.32c0-3 .56-5.6 1.68-7.8 1.12-2.24 2.58-3.98 4.38-5.22 1.84-1.24 3.84-1.86 6-1.86 1.84 0 3.5.42 4.98 1.26 1.52.8 2.72 1.96 3.6 3.48.88 1.48 1.32 3.26 1.32 5.34 0 .64-.04 1.22-.12 1.74-.04.48-.12.9-.24 1.26h-20.04v-1.32h13.68c1.12 0 1.9-.24 2.34-.72.44-.48.66-1.22.66-2.22 0-1.52-.26-2.84-.78-3.96-.48-1.12-1.18-1.98-2.1-2.58-.92-.64-2.02-.96-3.3-.96-1.28 0-2.54.42-3.78 1.26-1.2.84-2.18 2.18-2.94 4.02-.76 1.84-1.14 4.26-1.14 7.26 0 2.44.4 4.54 1.2 6.3.8 1.76 1.88 3.12 3.24 4.08 1.4.92 2.98 1.38 4.74 1.38 1.8 0 3.36-.38 4.68-1.14 1.32-.8 2.46-1.84 3.42-3.12l.84.48c-.68 1.56-1.54 2.84-2.58 3.84-1.04.96-2.2 1.68-3.48 2.16-1.24.48-2.58.72-4.02.72ZM97.038 95.714h224.467v3H97.038v-3Zm37.969 82H283.54v3H135.007v-3Z" fill="#76A1D8"/></svg>