<svg width="112" height="108" fill="none" xmlns="http://www.w3.org/2000/svg"><path d="M111.343 52.472 57.583.633a2.267 2.267 0 0 0-1.146-.591 2.317 2.317 0 0 0-1.295.123c-.41.163-.76.44-1.006.796a2.105 2.105 0 0 0-.377 1.2v23.76H38.08c-.594 0-1.163.227-1.584.632-.42.405-.656.955-.656 1.528v51.838c0 .573.236 1.122.657 1.527.42.405.99.633 1.583.633h15.68v23.759c0 .428.13.846.377 1.201.246.356.597.633 1.006.797.41.163.86.206 1.295.122a2.257 2.257 0 0 0 1.147-.592l53.759-51.838c.208-.2.374-.439.486-.701a2.088 2.088 0 0 0 0-1.654 2.149 2.149 0 0 0-.486-.701Zm-53.104 48.15V79.919c0-.573-.236-1.122-.656-1.527a2.283 2.283 0 0 0-1.584-.633H40.32V30.241H56c.594 0 1.164-.228 1.584-.633.42-.405.656-.954.656-1.527V7.378L106.59 54l-48.35 46.622ZM4.48 28.081v51.838c0 .573-.235 1.122-.655 1.527-.42.405-.99.633-1.584.633a2.283 2.283 0 0 1-1.584-.633A2.122 2.122 0 0 1 0 79.92V28.08c0-.573.236-1.122.656-1.528.42-.405.99-.632 1.584-.632.594 0 1.164.227 1.584.632.42.405.656.955.656 1.528Zm17.92 0v51.838c0 .573-.235 1.122-.655 1.527-.42.405-.99.633-1.584.633a2.283 2.283 0 0 1-1.584-.633 2.122 2.122 0 0 1-.656-1.527V28.08c0-.573.236-1.122.656-1.528.42-.405.99-.632 1.584-.632.594 0 1.163.227 1.584.632.42.405.656.955.656 1.528Z" fill="#5286CB"/></svg>